HIERARCHY
ROOT Hips
{
	OFFSET 0.00000 0.00000 0.00000
	CHANNELS 6 Xposition Yposition Zposition Yrotation Zrotation Xrotation 
	JOINT Lumbar
	{
		OFFSET 0 0 0
		CHANNELS 3 Zrotation Xrotation Yrotation
		JOINT Neck
		{
			OFFSET 0.00 0.2701 0.00
			CHANNELS 3 Zrotation Xrotation Yrotation
			End Site
			{
				OFFSET 0.00 0.1379 0.00
			}
		}
		JOINT RightShoulder
		{
			OFFSET 0.0119 0.2289 0.1181
			CHANNELS 3 Zrotation Xrotation Yrotation
			JOINT RightElbow
			{
				OFFSET 0.00 -0.1475 0.00
				CHANNELS 2 Zrotation Yrotation
				JOINT RightWrist
				{
					OFFSET 0.00 -0.1605 0.00
					CHANNELS 2 Zrotation Xrotation
					End Site
					{
						OFFSET 0.0040 -0.1068 0.0006
					}
				}
			}
		}
		JOINT LeftShoulder
		{
			OFFSET 0.0119 0.2289 -0.1181
			CHANNELS 3 Zrotation Xrotation Yrotation
			JOINT LeftElbow
			{
				OFFSET 0.00 -0.1475 0.00
				CHANNELS 2 Zrotation Yrotation
				JOINT LeftWrist
				{
					OFFSET 0.00 -0.1605 0.00
					CHANNELS 2 Zrotation Xrotation
					End Site
					{
						OFFSET 0.0040 -0.1068 -0.0006
					}
				}
			}
		}
	}
	JOINT RightHip
	{
		OFFSET 0.0316 -0.0424 0.0458
		CHANNELS 3 Zrotation Xrotation Yrotation
		JOINT RightKnee
		{
			OFFSET 0.00 -0.2438 0.00
			CHANNELS 1 Zrotation
			JOINT RightAnkle
			{
				OFFSET 0.00 -0.2449 0.00
				CHANNELS 3 Zrotation Xrotation Yrotation
				End Site
				{
					OFFSET 0.1237 -0.0542 0.0051
				}
			}
		}
	}
	JOINT LeftHip
	{
		OFFSET 0.0316 -0.0424 -0.0458
		CHANNELS 3 Zrotation Xrotation Yrotation
		JOINT LeftKnee
		{
			OFFSET 0.00 -0.2438 0.00
			CHANNELS 1 Zrotation
			JOINT LeftAnkle
			{
				OFFSET 0.00 -0.2449 0.00
				CHANNELS 3 Zrotation Xrotation Yrotation
				End Site
				{
					OFFSET 0.1237 -0.0542 -0.0051
				}
			}
		}
	}
}
MOTION
Frames: 28
Frame Time: 0.02
0.03942 0.00536 0.38032 -570.38353 -25.61488 3.29667 41.49979 -0.64748 0.99491 -23.76189 1.74386 -0.83079 -34.54267 -2.99969 -29.76201 111.10456 81.60278 -2.07632 -0.42455 -28.42773 7.0517 32.60069 103.26636 -88.2341 8.18752 1.40121 21.02408 -2.85155 -9.25821 -35.06146 -6.79962 -2.52026 -1.93788 43.44552 -6.79467 13.784 -18.65057 -9.62513 3.10737 2.40143
0.03222 0.0051 0.37811 -570.0543 -25.39179 3.31688 41.39782 -0.62668 1.03187 -23.03477 1.78482 -0.83079 -31.72413 -3.813 -32.43691 107.10324 80.98134 -2.64421 -0.35819 -26.03021 7.67952 35.50526 99.24925 -88.38256 7.85017 1.26213 21.41867 -3.02924 -8.3098 -37.22924 -7.16998 -2.45501 -1.91774 42.57588 -6.92799 13.95861 -19.14233 -9.3451 3.06704 2.36256
0.02518 0.00455 0.37623 -569.72481 -25.01766 3.29386 41.14047 -0.5675 0.97214 -22.26899 1.8214 -0.83079 -28.55493 -4.67967 -35.18813 102.23976 80.05047 -3.52157 -0.2716 -23.55624 8.29385 38.49672 94.52521 -88.41187 7.20976 1.09321 21.99175 -3.16619 -7.11397 -39.88477 -7.61862 -2.38108 -1.89606 41.54944 -7.04673 13.98751 -19.63474 -9.05714 3.05567 2.3389
0.01812 0.00412 0.37423 -569.40359 -24.69491 3.2951 40.92892 -0.52432 0.95896 -21.52093 1.85215 -0.83079 -25.54121 -5.53142 -37.88509 97.72819 79.26337 -4.25052 -0.19185 -21.13556 8.94839 41.40494 90.05691 -88.48706 6.71493 0.94041 22.48877 -3.34084 -6.05215 -42.33215 -8.04014 -2.30751 -1.87331 40.57475 -7.17069 14.10592 -20.12179 -8.77449 3.02838 2.30702
0.01084 0.00376 0.37213 -569.04936 -24.43984 3.27799 40.81812 -0.48709 0.93646 -20.76869 1.91562 -0.83079 -22.51834 -6.34553 -40.68901 93.34905 78.46812 -5.00742 -0.11192 -18.61925 9.47262 44.51535 85.82602 -88.59675 6.18896 0.77657 22.96453 -3.43606 -4.89695 -44.73976 -8.43105 -2.24569 -1.85629 39.67415 -7.30043 14.13704 -20.63134 -8.48172 3.01178 2.27998
0.00405 0.00318 0.3703 -568.76117 -24.01291 3.28654 40.46551 -0.42755 0.90818 -20.01916 1.91164 -0.83079 -19.45125 -7.24469 -43.27604 88.52025 77.61853 -5.77828 -0.03151 -16.29498 10.25054 47.21996 80.96917 -88.60856 5.65758 0.62901 23.52734 -3.68525 -3.88067 -47.32789 -8.89893 -2.16125 -1.829 38.58855 -7.41339 14.30727 -21.09239 -8.20991 2.98028 2.24681
-0.0015 0.00201 0.36916 -568.68087 -23.11151 3.39956 39.44125 -0.32696 0.90702 -19.26452 1.70219 -0.83079 -16.22324 -8.43091 -45.28078 82.4514 76.64303 -6.55141 0.04578 -14.46777 11.84735 48.76252 74.29499 -88.35241 5.15424 0.53048 24.27965 -4.38487 -3.28078 -50.43175 -9.60274 -1.9834 -1.75648 36.98869 -7.50018 14.94429 -21.43634 -7.99005 2.89908 2.19182
-0.00655 0.00064 0.36827 -568.662 -22.04962 3.53584 38.18708 -0.20367 0.89965 -18.51849 1.4286 -0.83079 -12.98885 -9.68875 -47.05495 76.00253 75.63159 -7.32184 0.12127 -12.84886 13.6781 49.8932 67.06777 -88.00616 4.66068 0.45001 25.11315 -5.23818 -2.8347 -53.67036 -10.37338 -1.78879 -1.67665 35.21667 -7.56771 15.71618 -21.72848 -7.7933 2.80227 2.13043
-0.01176 -0.00059 0.36723 -568.599 -21.08543 3.64636 37.06539 -0.08316 0.88258 -17.78292 1.19743 -0.83079 -9.84011 -10.87237 -48.90864 69.86561 74.66921 -8.06875 0.19585 -11.16923 15.32576 51.22494 60.26558 -87.719 4.1828 0.36335 25.91602 -6.01078 -2.33594 -56.7622 -11.08512 -1.62427 -1.61187 33.5512 -7.6335 16.39514 -22.0331 -7.5915 2.71366 2.07279
-0.01723 -0.00205 0.36634 -568.6062 -20.01085 3.81906 35.81913 0.00833 0.91555 -16.98443 0.91001 -0.83079 -6.32634 -12.23609 -50.87234 63.10503 73.55872 -8.93042 0.2788 -9.33958 17.29683 52.5078 52.69879 -87.35289 3.61088 0.26699 26.70488 -6.82691 -1.75451 -60.24868 -11.91929 -1.3667 -1.49871 31.75985 -7.74321 17.20456 -22.38394 -7.36657 2.62135 2.01209
-0.02206 -0.00306 0.3652 -568.47956 -19.13073 3.86886 34.78094 0.16334 0.84339 -16.32066 0.72466 -0.83079 -3.57997 -13.23806 -52.5507 57.57125 72.75133 -9.54886 0.34334 -7.87772 18.65039 53.78551 46.61043 -87.12917 3.23933 0.19566 27.53209 -7.59058 -1.38668 -62.91819 -12.51425 -1.2964 -1.4831 30.1929 -7.75687 17.77383 -22.62687 -7.19514 2.53271 1.95607
-0.02526 -0.0028 0.36332 -567.98739 -18.82229 3.56971 34.36467 0.50339 0.48939 -16.01783 0.83582 -0.83079 -2.92269 -13.24949 -53.49812 55.46489 72.7979 -9.49165 0.35939 -7.33959 18.23918 55.21685 44.67486 -87.34043 3.43456 0.18767 28.5108 -8.16123 -1.5546 -63.47211 -12.42337 -1.76973 -1.75124 29.28055 -7.512 17.66723 -22.57879 -7.16833 2.45752 1.91436
-0.02785 -0.00208 0.36117 -567.35494 -18.71693 3.14735 34.16839 0.90336 0.02938 -15.85222 1.05181 -0.83079 -3.04526 -12.89005 -54.16514 54.61961 73.15047 -9.18944 0.3566 -7.17171 17.19999 56.64446 44.26036 -87.69513 3.8293 0.2045 29.5119 -8.67562 -1.93388 -63.16453 -12.09062 -2.42748 -2.11518 28.60256 -7.17103 17.3114 -22.42504 -7.19413 2.38653 1.87755
-0.03072 -0.00157 0.35911 -566.77413 -18.52205 2.78376 33.87774 1.26602 -0.38663 -15.62979 1.2209 -0.83079 -2.83378 -12.68219 -54.96052 53.23755 73.35947 -9.00049 0.36096 -6.86256 16.44865 58.02895 43.19773 -87.97168 4.12425 0.2112 30.45926 -9.22331 -2.23172 -63.13507 -11.87419 -2.98678 -2.42739 27.82222 -6.87258 17.05685 -22.32336 -7.1942 2.31377 1.83853
-0.03355 -0.00104 0.35718 -566.24627 -18.3088 2.40789 33.55444 1.67288 -0.78685 -15.38397 1.38593 -0.83079 -2.53746 -12.54539 -55.74659 51.69244 73.5872 -8.80209 0.37082 -6.44981 15.6909 59.58724 41.93988 -88.29928 4.45929 0.21427 31.59464 -9.74507 -2.48375 -63.58875 -11.63354 -3.60933 -2.77511 27.01642 -6.57753 16.85674 -22.20251 -7.20271 2.23981 1.79915
-0.03632 -0.00045 0.35493 -565.57441 -18.18534 2.02975 33.35548 2.00057 -1.24307 -15.21968 1.58354 -0.83079 -2.60121 -12.17544 -56.48517 50.78627 73.84764 -8.56699 0.3653 -6.33411 14.79958 60.7894 41.44884 -88.55637 4.7563 0.22977 32.3412 -10.30375 -2.86603 -62.83046 -11.38447 -4.1416 -3.07024 26.32382 -6.25381 16.48327 -22.09751 -7.20587 2.16967 1.76184
-0.03909 0.00021 0.3519 -564.5356 -18.25097 1.66056 33.43832 2.10402 -1.84481 -15.24426 1.85984 -0.83079 -3.48634 -11.21894 -57.18996 51.38525 74.13745 -8.27402 0.31718 -6.98172 13.64592 60.99907 42.78127 -88.58575 4.91747 0.27909 32.01972 -10.99102 -3.67454 -58.93261 -11.17577 -4.40203 -3.20979 25.86821 -5.86573 15.6826 -22.05948 -7.18119 2.10793 1.72845
-0.04181 0.00092 0.34857 -563.35724 -18.40225 1.29578 33.64129 2.12413 -2.49604 -15.34656 2.16318 -0.83079 -4.70364 -10.04677 -57.85233 52.57692 74.44764 -7.95524 0.25503 -7.90832 12.38669 60.85482 44.8224 -88.54368 5.03136 0.33804 31.30373 -11.71338 -4.58667 -53.84876 -10.96591 -4.56169 -3.29104 25.52247 -5.45357 14.71676 -22.04177 -7.14926 2.05022 1.69714
-0.04454 0.0016 0.34537 -562.24466 -18.52148 0.93897 33.79554 2.17614 -3.11358 -15.41508 2.4448 -0.83079 -5.75722 -8.99464 -58.51655 53.46638 74.73909 -7.65954 0.20249 -8.68395 11.20613 60.88069 46.48914 -88.52785 5.15354 0.39001 30.76054 -12.41155 -5.36964 -49.30442 -10.75317 -4.75203 -3.39001 25.1396 -5.05859 13.83263 -22.01679 -7.1206 1.99139 1.66525
-0.04728 0.00232 0.34218 -561.11664 -18.61966 0.53677 33.93261 2.25473 -3.78222 -15.48213 2.769 -0.83079 -6.89195 -7.83557 -59.24481 54.53666 75.07959 -7.30897 0.13599 -9.57421 9.87608 60.86522 48.42449 -88.52527 5.33334 0.45755 30.24524 -13.14614 -6.49562 -44.71132 -10.5459 -5.01024 -3.52797 24.71177 -4.63503 12.91352 -21.97995 -7.09377 1.92948 1.63185
-0.05001 0.00296 0.33889 -559.99025 -18.77817 0.23051 34.13103 2.25831 -4.35463 -15.5686 3.01065 -0.83079 -7.9263 -6.85415 -59.83282 55.35676 75.32082 -7.06777 0.09506 -10.28775 8.83815 60.85412 49.95516 -88.49884 5.38565 0.48997 29.57829 -13.80956 -6.94271 -39.97014 -10.33078 -5.10373 -3.57137 24.39935 -4.26511 12.02917 -21.97382 -7.0609 1.87516 1.60217
-0.05274 0.00334 0.33541 -558.89745 -19.09274 0.19969 34.47005 2.0667 -4.64939 -15.6913 3.00796 -0.83079 -8.59846 -6.40663 -60.049 55.3185 75.26404 -7.15303 0.13182 -10.43822 8.6566 60.92084 50.13487 -88.21618 5.03924 0.46601 28.58626 -14.30535 -5.36856 -34.93511 -10.08947 -4.74031 -3.35245 24.3904 -4.06204 11.30132 -22.04993 -7.01119 1.83849 1.58091
-0.05546 0.00365 0.33183 -557.81347 -19.46252 0.26397 34.86552 1.80369 -4.84448 -15.82963 2.92255 -0.83079 -9.15425 -6.14896 -60.12576 55.00628 75.10859 -7.34718 0.19422 -10.40107 8.7721 61.00639 49.88627 -87.94032 4.57404 0.40047 27.45659 -14.72169 -3.12786 -29.82858 -9.84242 -4.21859 -3.04275 24.49117 -3.91202 10.6125 -22.15638 -6.95572 1.80973 1.56352
-0.05819 0.004 0.32828 -556.72861 -19.79862 0.27739 35.23363 1.5787 -5.0853 -15.95932 2.88091 -0.83079 -9.7627 -5.81244 -60.2648 54.82745 75.0093 -7.4807 0.2426 -10.45184 8.73807 61.09926 49.86588 -87.80932 4.20294 0.3228 26.39044 -15.14997 -1.2724 -24.87457 -9.60235 -3.78605 -2.78434 24.53205 -3.72961 9.89273 -22.24781 -6.90389 1.77889 1.54522
-0.0609 0.00431 0.32477 -555.62274 -20.17241 0.32208 35.61309 1.32761 -5.32841 -16.09924 2.81426 -0.83079 -10.38696 -5.43679 -60.40774 54.63107 74.86345 -7.65983 0.30045 -10.49955 8.75816 61.11988 49.73045 -87.09136 3.66912 0.36721 25.30251 -15.68102 0.9215 -19.37373 -9.34357 -3.27763 -2.48175 24.61647 -3.5807 9.21923 -22.34485 -6.84757 1.74187 1.52345
-0.06365 0.00468 0.32116 -554.56813 -20.4818 0.32553 35.98096 1.11464 -5.53948 -16.21937 2.77959 -0.83079 -10.94277 -5.19057 -60.50878 54.40022 74.79041 -7.77063 0.34488 -10.50772 8.74151 61.2911 49.72229 -87.54821 3.43638 0.15898 24.23737 -15.97927 2.57685 -15.00813 -9.1225 -2.8906 -2.25018 24.6383 -3.37565 8.46534 -22.43748 -6.79927 1.71948 1.50977
-0.06661 0.00529 0.31731 -553.62305 -20.58011 0.18042 36.29939 1.02787 -5.71181 -16.29063 2.85378 -0.83079 -11.3651 -5.25766 -60.53862 54.1199 74.94579 -7.66283 0.34588 -10.42986 8.51755 61.95389 50.17431 -91.68818 4.15389 -0.83866 23.22758 -15.649 2.52436 -13.82354 -9.00711 -2.88065 -2.23884 24.4289 -2.99671 7.44177 -22.50781 -6.7749 1.73608 1.51777
-0.06959 0.00596 0.31336 -552.73539 -20.61451 -0.00736 36.60388 0.98171 -5.8507 -16.33938 2.96261 -0.83079 -11.71607 -5.44935 -60.52874 53.8152 75.17715 -7.48325 0.33258 -10.32092 8.25284 62.75554 50.76432 -96.93472 5.1634 -2.07156 22.25477 -15.08805 1.91775 -13.78517 -8.92991 -2.99819 -2.302 24.15758 -2.56074 6.34365 -22.57302 -6.75876 1.76702 1.53371
